<?xml version="1.0" encoding="UTF-8"?>
<svg xmlns="http://www.w3.org/2000/svg" width="1450" height="280" version="1.0" shape-rendering="geometricPrecision"><defs><style type="text/css">@font-face {
  font-family: sans-serif;
}</style><filter id="shadowBlur" x="0" y="0" width="200%" height="200%"><feOffset in="SourceGraphic" dx="3.0003002" dy="3.0003002" result="offOut"/><feGaussianBlur in="offOut" stdDeviation="3"/></filter></defs><g stroke-width="1" stroke-linecap="square" stroke-linejoin="round"><rect x="0" y="0" width="1450" height="280" style="fill: #ffffff"/><path stroke="#969696" fill="#969696" filter="url(#shadowBlur)" d="M875.0 35.0 L1075.0 35.0 L1075.0 105.0 L875.0 105.0 z"/><path stroke="#969696" fill="#969696" filter="url(#shadowBlur)" d="M645.0 35.0 L835.0 35.0 L835.0 105.0 L645.0 105.0 z"/><path stroke="#969696" fill="#969696" filter="url(#shadowBlur)" d="M795.0 175.0 L985.0 175.0 L985.0 245.0 L795.0 245.0 z"/><path stroke="#969696" fill="#969696" filter="url(#shadowBlur)" d="M445.0 175.0 L615.0 175.0 L615.0 245.0 L445.0 245.0 z"/><path stroke="#969696" fill="#969696" filter="url(#shadowBlur)" d="M285.0 35.0 L425.0 35.0 L425.0 91.0 L285.0 91.0 z"/><path stroke="#969696" fill="#969696" filter="url(#shadowBlur)" d="M465.0 35.0 L605.0 35.0 L605.0 91.0 L465.0 91.0 z"/><path stroke="#969696" fill="#969696" filter="url(#shadowBlur)" d="M25.0 35.0 L235.0 35.0 L235.0 61.0 L25.0 61.0 z"/><path stroke="#969696" fill="#969696" filter="url(#shadowBlur)" d="M25.0 65.0 L235.0 65.0 L235.0 91.0 L25.0 91.0 z"/><path stroke="#969696" fill="#969696" filter="url(#shadowBlur)" d="M255.0 147.0 L355.0 147.0 L355.0 189.0 L255.0 189.0 z"/><path stroke="white" stroke-width="1.0" stroke-linecap="round" stroke-linejoin="round" fill="#ffff33" d="M1145.0 105.0 C1171.0 112.0 1279.0 112.0 1305.0 105.0 C1279.0 98.0 1171.0 98.0 1145.0 105.0 M1145.0 105.0 L1145.0 161.0 C1171.0 171.0 1279.0 171.0 1305.0 161.0 L1305.0 105.0 "/><path stroke="#000000" stroke-width="1.0" stroke-linecap="round" stroke-linejoin="round" fill="none" d="M1145.0 105.0 C1171.0 112.0 1279.0 112.0 1305.0 105.0 C1279.0 98.0 1171.0 98.0 1145.0 105.0 M1145.0 105.0 L1145.0 161.0 C1171.0 171.0 1279.0 171.0 1305.0 161.0 L1305.0 105.0 "/><path stroke="#000000" stroke-width="1.0" stroke-linecap="round" stroke-linejoin="round" fill="#99dd99" d="M875.0 35.0 L1075.0 35.0 L1075.0 105.0 L875.0 105.0 z"/><path stroke="#000000" stroke-width="1.0" stroke-linecap="round" stroke-linejoin="round" fill="#99dd99" d="M645.0 35.0 L835.0 35.0 L835.0 105.0 L645.0 105.0 z"/><path stroke="#000000" stroke-width="1.0" stroke-linecap="round" stroke-linejoin="round" fill="#3377ff" d="M795.0 175.0 L985.0 175.0 L985.0 245.0 L795.0 245.0 z"/><path stroke="#000000" stroke-width="1.0" stroke-linecap="round" stroke-linejoin="round" fill="#3377ff" d="M445.0 175.0 L615.0 175.0 L615.0 245.0 L445.0 245.0 z"/><path stroke="#000000" stroke-width="1.0" stroke-linecap="round" stroke-linejoin="round" fill="#ffff33" d="M285.0 35.0 L425.0 35.0 L425.0 91.0 L285.0 91.0 z"/><path stroke="#000000" stroke-width="1.0" stroke-linecap="round" stroke-linejoin="round" fill="#ffff33" d="M465.0 35.0 L605.0 35.0 L605.0 91.0 L465.0 91.0 z"/><path stroke="#000000" stroke-width="1.0" stroke-linecap="round" stroke-linejoin="round" fill="#99dd99" d="M25.0 35.0 L235.0 35.0 L235.0 61.0 L25.0 61.0 z"/><path stroke="#000000" stroke-width="1.0" stroke-linecap="round" stroke-linejoin="round" fill="#3377ff" d="M25.0 65.0 L235.0 65.0 L235.0 91.0 L25.0 91.0 z"/><path stroke="#000000" stroke-width="1.0" stroke-linecap="round" stroke-linejoin="round" fill="none" d="M1225.0 175.0 L1225.0 210.0 Q1225.0 217.0 1220.0 217.0 L985.0 217.0 L985.0 217.0 "/><path stroke="#000000" stroke-width="1.0" stroke-linecap="round" stroke-linejoin="round" fill="white" d="M255.0 147.0 L355.0 147.0 L355.0 189.0 L255.0 189.0 z"/><path stroke="#000000" stroke-width="1.0" stroke-linecap="round" stroke-linejoin="round" fill="none" d="M385.0 91.0 L385.0 140.0 Q385.0 147.0 390.0 147.0 L525.0 147.0 L525.0 147.0 "/><path stroke="#000000" stroke-width="1.0" stroke-linecap="round" stroke-linejoin="round" fill="none" d="M725.0 119.0 L725.0 140.0 Q725.0 147.0 720.0 147.0 L545.0 147.0 L545.0 147.0 "/><path stroke="#000000" stroke-width="1.0" stroke-linecap="round" stroke-linejoin="round" fill="none" d="M1075.0 63.0 L1225.0 63.0 L1225.0 91.0 "/><path stroke="none" stroke-width="1.0" stroke-linecap="round" stroke-linejoin="round" fill="#000000" d="M270.0 42.0 L280.0 49.0 L270.0 56.0 z"/><path stroke="none" stroke-width="1.0" stroke-linecap="round" stroke-linejoin="round" fill="#000000" d="M450.0 56.0 L460.0 63.0 L450.0 70.0 z"/><path stroke="none" stroke-width="1.0" stroke-linecap="round" stroke-linejoin="round" fill="#000000" d="M630.0 56.0 L640.0 63.0 L630.0 70.0 z"/><path stroke="none" stroke-width="1.0" stroke-linecap="round" stroke-linejoin="round" fill="#000000" d="M860.0 56.0 L870.0 63.0 L860.0 70.0 z"/><path stroke="none" stroke-width="1.0" stroke-linecap="round" stroke-linejoin="round" fill="#000000" d="M270.0 70.0 L280.0 77.0 L270.0 84.0 z"/><path stroke="none" stroke-width="1.0" stroke-linecap="round" stroke-linejoin="round" fill="#000000" d="M1220.0 84.0 L1225.0 98.0 L1230.0 84.0 z"/><path stroke="none" stroke-width="1.0" stroke-linecap="round" stroke-linejoin="round" fill="#000000" d="M325.0 98.0 L320.0 112.0 L330.0 112.0 z"/><path stroke="none" stroke-width="1.0" stroke-linecap="round" stroke-linejoin="round" fill="#000000" d="M725.0 112.0 L720.0 126.0 L730.0 126.0 z"/><path stroke="none" stroke-width="1.0" stroke-linecap="round" stroke-linejoin="round" fill="#000000" d="M530.0 154.0 L535.0 168.0 L540.0 154.0 z"/><path stroke="none" stroke-width="1.0" stroke-linecap="round" stroke-linejoin="round" fill="#000000" d="M1225.0 168.0 L1220.0 182.0 L1230.0 182.0 z"/><path stroke="none" stroke-width="1.0" stroke-linecap="round" stroke-linejoin="round" fill="#000000" d="M780.0 210.0 L790.0 217.0 L780.0 224.0 z"/><path stroke="#000000" stroke-width="1.0" stroke-linecap="round" stroke-linejoin="round" fill="none" d="M550.0 217.0 L559.0 217.0 "/><path stroke="#000000" stroke-width="1.0" stroke-linecap="round" stroke-linejoin="round" fill="none" d="M535.0 105.0 L535.0 161.0 "/><path stroke="#000000" stroke-width="1.0" stroke-linecap="round" stroke-linejoin="round" fill="none" d="M325.0 105.0 L325.0 133.0 "/><path stroke="#000000" stroke-width="1.0" stroke-linecap="round" stroke-linejoin="round" fill="none" d="M235.0 49.0 L275.0 49.0 "/><path stroke="#000000" stroke-width="1.0" stroke-linecap="round" stroke-linejoin="round" fill="none" d="M235.0 77.0 L275.0 77.0 "/><path stroke="#000000" stroke-width="1.0" stroke-linecap="round" stroke-linejoin="round" fill="none" d="M425.0 63.0 L455.0 63.0 "/><path stroke="#000000" stroke-width="1.0" stroke-linecap="round" stroke-linejoin="round" fill="none" d="M605.0 63.0 L635.0 63.0 "/><path stroke="#000000" stroke-width="1.0" stroke-linecap="round" stroke-linejoin="round" fill="none" d="M835.0 63.0 L865.0 63.0 "/><path stroke="#000000" stroke-width="1.0" stroke-linecap="round" stroke-linejoin="round" fill="none" d="M615.0 217.0 L785.0 217.0 "/><text x="98" y="55" font-family="sans-serif" font-size="16" stroke="none" fill="#000000"><![CDATA[curl (magnet )]]></text><text x="330" y="69" font-family="sans-serif" font-size="16" stroke="none" fill="#000000"><![CDATA[Nginx]]></text><text x="330" y="83" font-family="sans-serif" font-size="16" stroke="none" fill="#000000"><![CDATA[(8080)]]></text><text x="502" y="68" font-family="sans-serif" font-size="15" stroke="none" fill="#000000"><![CDATA[Webhook]]></text><text x="702" y="69" font-family="sans-serif" font-size="16" stroke="none" fill="#000000"><![CDATA[Download]]></text><text x="688" y="83" font-family="sans-serif" font-size="16" stroke="none" fill="#000000"><![CDATA[Transmission]]></text><text x="900" y="69" font-family="sans-serif" font-size="16" stroke="none" fill="#000000"><![CDATA[Process Metadata]]></text><text x="900" y="83" font-family="sans-serif" font-size="16" stroke="none" fill="#000000"><![CDATA[Beets (Music)]]></text><text x="900" y="97" font-family="sans-serif" font-size="16" stroke="none" fill="#000000"><![CDATA[Filebot (Video)]]></text><text x="102" y="83" font-family="sans-serif" font-size="16" stroke="none" fill="#000000"><![CDATA[curl (https )]]></text><text x="1185" y="139" font-family="sans-serif" font-size="16" stroke="none" fill="#000000"><![CDATA[Plex Library]]></text><text x="290" y="166" font-family="sans-serif" font-size="14" stroke="none" fill="#000000"><![CDATA[Web]]></text><text x="284" y="181" font-family="sans-serif" font-size="16" stroke="none" fill="#000000"><![CDATA[Browser]]></text><text x="492" y="209" font-family="sans-serif" font-size="16" stroke="none" fill="#000000"><![CDATA[Download]]></text><text x="490" y="223" font-family="sans-serif" font-size="16" stroke="none" fill="#000000"><![CDATA[youtube dl]]></text><text x="810" y="209" font-family="sans-serif" font-size="16" stroke="none" fill="#000000"><![CDATA[Process Metadata]]></text><text x="810" y="223" font-family="sans-serif" font-size="16" stroke="none" fill="#000000"><![CDATA[Beets (Music)]]></text><text x="810" y="237" font-family="sans-serif" font-size="16" stroke="none" fill="#000000"><![CDATA[or None (Video)]]></text></g></svg>